<?xml version="1.0" encoding="UTF-8"?>
<!-- Created with Inkscape (http://www.inkscape.org/) -->
<svg width="256" height="256" version="1.1" viewBox="0 0 67.733 67.733" xmlns="http://www.w3.org/2000/svg">
 <g stroke-linecap="round" stroke-linejoin="round">
  <path d="m31.949 3.9746a5.9999 5.9999 0 0 0-3.459 3.0195l-24.227 48.883a5.9999 5.9999 0 0 0 2.7109 8.041 5.9999 5.9999 0 0 0 8.0391-2.7129l24.229-48.881a5.9999 5.9999 0 0 0-2.7109-8.041 5.9999 5.9999 0 0 0-4.582-0.30859z" color="#000000" style="-inkscape-stroke:none"/>
  <path d="m35.783 3.9746a5.9999 5.9999 0 0 0-4.582 0.30859 5.9999 5.9999 0 0 0-2.7109 8.041l24.229 48.881a5.9999 5.9999 0 0 0 8.041 2.7129 5.9999 5.9999 0 0 0 2.7109-8.041l-24.229-48.883a5.9999 5.9999 0 0 0-3.459-3.0195z" color="#000000" style="-inkscape-stroke:none"/>
  <path d="m9.6387 52.541a5.9999 5.9999 0 0 0-6 6 5.9999 5.9999 0 0 0 6 6h48.455a5.9999 5.9999 0 0 0 6-6 5.9999 5.9999 0 0 0-6-6z" color="#000000" style="-inkscape-stroke:none"/>
 </g>
</svg>
