<?xml version="1.0" encoding="UTF-8"?>
<!-- Created with Inkscape (http://www.inkscape.org/) -->
<svg width="256" height="256" version="1.1" viewBox="0 0 67.733 67.733" xmlns="http://www.w3.org/2000/svg">
 <g>
  <path d="m56.572 3.852a6.0006 6.0006 0 0 0-2.6841 1.5079l-48.528 48.528a6.0006 6.0006 0 0 0 2.7223 9.9715 6.0006 6.0006 0 0 0 5.763-1.4862l48.528-48.528a6.0006 6.0006 0 0 0 1.5079-2.6841 6.0006 6.0006 0 0 0-1.5674-5.7418 6.0006 6.0006 0 0 0-2.6629-1.5456 6.0006 6.0006 0 0 0-3.0789-0.021704z" color="#000000" style="-inkscape-stroke:none"/>
  <path d="m11.161 3.852a6.0006 6.0006 0 0 1 2.6841 1.5079l48.528 48.528a6.0006 6.0006 0 0 1-2.7223 9.9715 6.0006 6.0006 0 0 1-5.763-1.4862l-48.528-48.528a6.0006 6.0006 0 0 1-1.5079-2.6841 6.0006 6.0006 0 0 1 1.5674-5.7418 6.0006 6.0006 0 0 1 2.6629-1.5456 6.0006 6.0006 0 0 1 3.0789-0.021704z" color="#000000" style="-inkscape-stroke:none"/>
 </g>
</svg>
